<svg width="145" height="52" viewBox="0 0 145 52" fill="none" xmlns="http://www.w3.org/2000/svg">
<rect x="6.25781" width="21.4553" height="9.83367" rx="3" fill="#205FFF"/>
<rect y="35.7588" width="53.6382" height="16.0915" rx="5" fill="#205FFF"/>
<path fill-rule="evenodd" clip-rule="evenodd" d="M11.2578 11.6216C8.49639 11.6216 6.25781 13.8602 6.25781 16.6216V28.9709C6.25781 31.7323 8.49638 33.9709 11.2578 33.9709H43.2744C46.0358 33.9709 48.2744 31.7323 48.2744 28.9709V16.6216C48.2744 13.8602 46.0358 11.6216 43.2744 11.6216H11.2578ZM30.8201 15.1976C28.6109 15.1976 26.8201 16.9884 26.8201 19.1976V22.8192C26.8201 25.0283 28.6109 26.8192 30.8201 26.8192H39.8055C42.0146 26.8192 43.8055 25.0283 43.8055 22.8192V19.1976C43.8055 16.9884 42.0146 15.1976 39.8055 15.1976H30.8201Z" fill="#205FFF"/>
<circle cx="25.924" cy="43.8044" r="4.46985" fill="white"/>
<circle cx="25.9251" cy="43.8045" r="2.68191" fill="#205FFF"/>
<path d="M67.44 20.2H77.52C79.2 20.2 80.416 20.584 81.168 21.352C81.936 22.104 82.32 23.32 82.32 25V27.4C82.32 29.08 81.936 30.304 81.168 31.072C80.416 31.824 79.2 32.2 77.52 32.2H71.76V37H67.44V20.2ZM78 25C78 24.04 77.52 23.56 76.56 23.56H71.76V28.84H76.56C77.52 28.84 78 28.36 78 27.4V25ZM97.1991 33.4C97.1991 34.6 96.8551 35.544 96.1671 36.232C95.4951 36.904 94.5591 37.24 93.3591 37.24H87.8391C86.6391 37.24 85.6951 36.904 85.0071 36.232C84.3351 35.544 83.9991 34.6 83.9991 33.4V27.88C83.9991 26.68 84.3351 25.744 85.0071 25.072C85.6951 24.384 86.6391 24.04 87.8391 24.04H93.3591C94.5591 24.04 95.4951 24.384 96.1671 25.072C96.8551 25.744 97.1991 26.68 97.1991 27.88V33.4ZM92.9991 28.24C92.9991 27.6 92.6791 27.28 92.0391 27.28H89.1591C88.5191 27.28 88.1991 27.6 88.1991 28.24V33.04C88.1991 33.68 88.5191 34 89.1591 34H92.0391C92.6791 34 92.9991 33.68 92.9991 33.04V28.24ZM98.8763 33.64C102.124 33.88 104.684 34 106.556 34C106.796 34 106.996 33.92 107.156 33.76C107.316 33.6 107.396 33.4 107.396 33.16V32.32H102.236C101.148 32.32 100.276 31.992 99.6203 31.336C98.9643 30.68 98.6363 29.808 98.6363 28.72V27.88C98.6363 26.792 98.9643 25.92 99.6203 25.264C100.276 24.608 101.148 24.28 102.236 24.28H110.396V27.4H103.676C103.436 27.4 103.236 27.48 103.076 27.64C102.916 27.8 102.836 28 102.836 28.24C102.836 28.48 102.916 28.68 103.076 28.84C103.236 29 103.436 29.08 103.676 29.08H107.996C109.084 29.08 109.956 29.408 110.612 30.064C111.268 30.72 111.596 31.592 111.596 32.68V33.64C111.596 34.728 111.268 35.6 110.612 36.256C109.956 36.912 109.084 37.24 107.996 37.24C105.164 37.24 102.124 37.08 98.8763 36.76V33.64ZM118.324 24.76V37H114.124V28H112.324V24.76H118.324ZM114.124 19.96H118.324V23.32H114.124V19.96ZM131.051 23.44C130.587 23.408 129.971 23.36 129.203 23.296C128.435 23.232 127.771 23.2 127.211 23.2C126.651 23.2 126.291 23.28 126.131 23.44C125.971 23.6 125.891 23.8 125.891 24.04V25.24H129.851V28.48H125.891V37H121.691V28.48H120.011V25.24H121.691V23.56C121.691 22.472 122.019 21.6 122.675 20.944C123.331 20.288 124.203 19.96 125.291 19.96C126.267 19.96 127.299 19.992 128.387 20.056C129.475 20.12 130.363 20.168 131.051 20.2V23.44ZM134.896 41.32C134.048 41.32 133.008 41.24 131.776 41.08V37.96H133.936C134.544 37.96 134.936 37.792 135.112 37.456C135.304 37.12 135.272 36.648 135.016 36.04L130.096 24.28H134.536L137.536 32.44L140.056 24.28H144.496L139.696 37.48C139.232 38.744 138.632 39.696 137.896 40.336C137.16 40.992 136.16 41.32 134.896 41.32Z" fill="#205FFF"/>
</svg>
